<svg xmlns="http://www.w3.org/2000/svg" width="256" height="256" viewBox="0 0 100 100"><rect width="100" height="100" rx="20" fill="#7d6ee7"></rect><path fill="#fff" d="M46.40 74.74L32.02 74.74L32.02 116.82Q29.62 117.47 25.26 118.02Q20.90 118.56 16.10 118.56L16.10 118.56Q5.86 118.56 1.82 115.07Q-2.21 111.59-2.21 102.43L-2.21 102.43L-2.21-3.30Q-2.21-7.66 0.08-10.06Q2.37-12.46 6.73-13.77L6.73-13.77Q10.22-15.07 14.68-15.94Q19.15-16.82 23.84-17.47Q28.53-18.12 33.21-18.34Q37.90-18.56 42.04-18.56L42.04-18.56Q71.69-18.56 86.95-6.03Q102.21 6.51 102.21 28.31L102.21 28.31Q102.21 38.77 98.40 47.38Q94.58 56.00 87.39 62.10Q80.19 68.20 69.84 71.47Q59.48 74.74 46.40 74.74L46.40 74.74ZM31.80 47.93L44.22 47.93Q54.91 47.93 61.23 43.02Q67.55 38.12 67.55 28.31L67.55 28.31Q67.55 8.91 44.44 8.91L44.44 8.91Q40.52 8.91 37.57 9.13Q34.63 9.34 31.80 9.78L31.80 9.78L31.80 47.93Z"></path></svg>